<svg xmlns="http://www.w3.org/2000/svg"  viewBox="0 0 64 64" width="512px" height="512px" baseProfile="basic"><polygon fill="#743951" points="24,58.5 40,58.5 40,50 38,49 24,53"/><polygon fill="#743951" points="24,51 24,37.5 39,36.5 40,38.5 39,45.5"/><polygon fill="#ffa62e" points="42,58.5 42,44 52,43 56,43 56,57.5 52.899,58.5"/><polygon fill="#ffa62e" points="56,34.5 56,40 42,42 42,35.5 40,31 44,24"/><polygon fill="#ffa62e" points="22,39.5 9,36.5 8,33.5 22,21"/><polygon fill="#ffa62e" points="8,38.5 22,41.5 22,58.5 10.186,58.5 8,57"/><polygon fill="#f0104c" points="4,27.5 7,31.5 24,16.5 21,12.5"/><polygon fill="#f0104c" points="23,10.5 26,14.5 37,7.5 33,3.5"/><polygon fill="#f0104c" points="35,11.5 40,10.5 50,20.5 46,22.5"/><polygon fill="#f0104c" points="47,23.5 51,22.5 60,30.5 57,33.5"/><polygon fill="#ffa62e" points="24,35 38,34 38,31 41,21 32,13 25.943,18.3 24,22"/></svg>